#N canvas 73 23 1270 688 12;
#X obj 50 50 r brightness;
#X obj 50 100 print;
#X obj 141 50 r hue;
#X obj 141 100 print;
#X obj 243 66 r track;
#X obj 243 354 readsf~ 2;
#X obj 243 399 throw~ B1;
#X obj 875 237 throw~ MST;
#X obj 875 192 *~ 0.5;
#X obj 875 139 catch~ LOP;
#X text 954 181 LOW PASS;
#X obj 699 306 catch~ MST;
#X obj 574 299 catch~ B1;
#X obj 698 424 dac~;
#X obj 998 144 r filter_cutoff;
#X obj 875 169 lop~ 200;
#X obj 574 369 throw~ MST;
#X msg 243 179 open ../..//assets/good-night-lofi-cozy-chill-music-160166.wav \, 1;
#X obj 243 130 sel 1 2 3 4 5 6 7 8 9 10, f 69;
#X connect 0 0 1 0;
#X connect 2 0 3 0;
#X connect 4 0 18 0;
#X connect 5 0 6 0;
#X connect 8 0 7 0;
#X connect 9 0 15 0;
#X connect 11 0 13 0;
#X connect 11 0 13 1;
#X connect 12 0 16 0;
#X connect 14 0 15 1;
#X connect 15 0 8 0;
#X connect 17 0 5 0;
#X connect 18 0 17 0;
#X connect 18 1 17 0;

