#N canvas 73 23 1270 688 12;
#X obj 50 50 r brightness;
#X obj 50 100 print;
#X obj 141 50 r hue;
#X obj 141 100 print;
#X obj 243 66 r track;
#X msg 428 324 open ../../assets/good-night-ofi-cozy-chi-music-160166.wav \, 1;
#X msg 382 293 open ../../assets/good-night-ofi-cozy-chi-music-160166.wav \, 1;
#X msg 475 364 open ../../assets/good-night-ofi-cozy-chi-music-160166.wav \, 1;
#X msg 335 253 open ../../assets/good-night-ofi-cozy-chi-music-160166.wav \, 1;
#X msg 567 433 open ../../assets/good-night-ofi-cozy-chi-music-160166.wav \, 1;
#X msg 521 402 open ../../assets/good-night-ofi-cozy-chi-music-160166.wav \, 1;
#X msg 614 473 open ../../assets/good-night-ofi-cozy-chi-music-160166.wav \, 1;
#X msg 707 555 open ../../assets/good-night-ofi-cozy-chi-music-160166.wav \, 1;
#X msg 660 508 open ../../assets/good-night-ofi-cozy-chi-music-160166.wav \, 1;
#X obj 243 354 readsf~ 2;
#X obj 243 399 throw~ B1;
#X obj 289 454 readsf~ 2;
#X obj 335 551 readsf~ 2;
#X obj 381 651 readsf~ 2;
#X obj 428 745 readsf~ 2;
#X obj 474 845 readsf~ 2;
#X obj 520 942 readsf~ 2;
#X obj 566 1042 readsf~ 2;
#X obj 614 1147 readsf~ 2;
#X obj 660 1244 readsf~ 2;
#X obj 706 1344 readsf~ 2;
#X obj 706 1389 throw~ B1;
#X obj 727 1367 throw~ B12;
#X obj 289 499 throw~ B2;
#X obj 335 596 throw~ B3;
#X obj 381 696 throw~ B4;
#X obj 428 790 throw~ B5;
#X obj 474 890 throw~ B6;
#X obj 520 987 throw~ B7;
#X obj 566 1087 throw~ B8;
#X obj 614 1192 throw~ B9;
#X obj 660 1289 throw~ B10;
#X obj 243 130 route 1 2 3 4 5 6 7 8 9 10, f 69;
#X obj 875 237 throw~ MST;
#X obj 875 169 lop~;
#X floatatom 994 148 5 0 0 2 FREQ - - 16;
#X obj 875 192 *~ 0.5;
#X obj 1175 177 throw~ MST;
#X floatatom 1295 106 5 0 0 2 FREQ - - 0;
#X obj 1175 148 *~ 0.5;
#X obj 1175 125 hip~;
#X obj 1482 177 throw~ MST;
#X floatatom 1613 107 5 0 0 2 FREQ - - 0;
#X obj 1482 148 *~ 0.5;
#X obj 1482 125 bp~, f 8;
#X floatatom 1655 107 5 0 0 2 Q - - 0;
#X obj 1717 177 throw~ MST;
#X obj 1717 148 *~ 0.5;
#X obj 1717 95 catch~ BYP;
#X obj 1482 95 catch~ BP;
#X obj 1175 95 catch~ HIP;
#X obj 875 139 catch~ LOP;
#X text 954 181 LOW PASS;
#X text 1255 135 HIGH PASS;
#X text 1570 135 BAND PASS;
#X text 1870 132 BYPASS;
#X obj 1488 1022 catch~ MST;
#X obj 1377 625 throw~ LOP;
#X obj 1377 749 throw~ LOP;
#X obj 1377 851 *~;
#X obj 1377 879 throw~ LOP;
#X obj 1739 593 *~;
#X obj 1739 621 throw~ LOP;
#X obj 1740 716 *~;
#X obj 1740 854 *~;
#X obj 1377 555 catch~ B1;
#X obj 1377 679 catch~ B2;
#X obj 1377 809 catch~ B3;
#X obj 1739 551 catch~ B4;
#X obj 1740 674 catch~ B5;
#X obj 1740 812 catch~ B6;
#X obj 1740 744 throw~ LOP;
#X obj 1740 882 throw~ LOP;
#X msg 243 179 open ../../assets/good-night-lofi-cozy-chill-music-160166.wav \, 1;
#X obj 1487 1140 dac~;
#X obj 335 74 r filter_cutoff;
#X msg 289 214 open ../../assets/good-night-lofi-cozy-chill-music-160166.wav \, 1;
#X connect 0 0 1 0;
#X connect 2 0 3 0;
#X connect 4 0 37 0;
#X connect 5 0 19 0;
#X connect 6 0 18 0;
#X connect 7 0 20 0;
#X connect 8 0 17 0;
#X connect 9 0 22 0;
#X connect 10 0 21 0;
#X connect 11 0 23 0;
#X connect 12 0 25 0;
#X connect 13 0 24 0;
#X connect 14 0 15 0;
#X connect 16 0 28 0;
#X connect 17 0 29 0;
#X connect 18 0 30 0;
#X connect 19 0 31 0;
#X connect 20 0 32 0;
#X connect 21 0 33 0;
#X connect 22 0 34 0;
#X connect 23 0 35 0;
#X connect 24 0 36 0;
#X connect 25 0 26 0;
#X connect 25 1 27 0;
#X connect 37 0 78 0;
#X connect 37 1 81 0;
#X connect 37 2 8 0;
#X connect 37 3 6 0;
#X connect 37 4 5 0;
#X connect 37 5 7 0;
#X connect 37 6 10 0;
#X connect 37 7 9 0;
#X connect 37 8 11 0;
#X connect 37 9 13 0;
#X connect 37 10 12 0;
#X connect 39 0 41 0;
#X connect 41 0 38 0;
#X connect 43 0 45 1;
#X connect 44 0 42 0;
#X connect 45 0 44 0;
#X connect 47 0 49 1;
#X connect 48 0 46 0;
#X connect 49 0 48 0;
#X connect 50 0 49 2;
#X connect 52 0 51 0;
#X connect 53 0 52 0;
#X connect 54 0 49 0;
#X connect 55 0 45 0;
#X connect 56 0 39 0;
#X connect 61 0 79 0;
#X connect 61 0 79 1;
#X connect 64 0 65 0;
#X connect 66 0 67 0;
#X connect 68 0 76 0;
#X connect 69 0 77 0;
#X connect 70 0 62 0;
#X connect 71 0 63 0;
#X connect 72 0 64 0;
#X connect 73 0 66 0;
#X connect 74 0 68 0;
#X connect 75 0 69 0;
#X connect 78 0 14 0;
#X connect 80 0 39 1;
#X connect 81 0 16 0;
