#N canvas 0 0 800 600 12;
#X obj 1899 377 *~;
#X obj 1859 377 *~;
#X obj 1859 231 readsf~ 2;
#X obj 1899 195 readsf~ 2;
#X obj 15135 4282;
#X obj 1302 268 throw~ MST;
#X obj 1302 200 lop~;
#X floatatom 1421 179 5 0 0 2 FREQ - - 16;
#X obj 1302 223 *~ 0.5;
#X obj 1302 170 catch~ LOP;
#X text 1381 212 LOW PASS;
#X msg 2133 218 \$1 5000;
#X obj 2133 252 line~;
#X obj 2133 179 r Crossfade;
#X obj 1859 38 r LoadPlayer_0;
#X obj 1899 117 r LoadPlayer_1;
#N canvas 0 50 450 300 _BlockMaster0 0;
#X msg 555 421 open src/assets/track_01.wav \, start, f 38;
#X msg 601 457 open src/assets/track_02.wav \, start;
#X msg 647 496 open src/assets/track_03.wav \, start;
#X msg 694 536 open src/assets/track_04.wav \, start;
#X msg 740 567 open src/assets/track_05.wav \, start;
#X msg 787 607 open src/assets/track_06.wav \, start;
#X msg 833 645 open src/assets/track_07.wav \, start;
#X msg 879 676 open src/assets/track_08.wav \, start;
#X msg 926 716 open src/assets/track_09.wav \, start;
#X msg 972 751 open src/assets/track_010.wav \, start;
#X obj 555 323 inlet;
#X obj 555 373 sel 1 2 3 4 5 6 7 8 9 10, f 69;
#X obj 601 801 outlet;
#X connect 1 0 12 0 32.................iB........vn.........TT....;
#X connect 2 0 12 0 32.................YA...L8+++eV....S++++6Q....;
#X connect 3 0 12 0 32.................RA...P5+++uT....j9+++aO....;
#X connect 4 0 12 0 32.................QA...X2+++eT....18+++eM....;
#X connect 5 0 12 0 32.................EA...bz+++eQ....G8++++J....;
#X connect 6 0 12 0 32.................y....jw++++L....Y7+++mH....;
#X connect 7 0 12 0 32.................n....rt+++OJ....q6+++qF....;
#X connect 8 0 12 0 32.................g....vq+++eH....75+++KD....;
#X connect 9 0 12 0 32.................P....3n+++OD....N5++++A....;
#X connect 10 0 11 0;
#X connect 11 0 0 0;
#X connect 11 1 1 0;
#X connect 11 2 2 0;
#X connect 11 3 3 0;
#X connect 11 4 4 0;
#X connect 11 5 5 0;
#X connect 11 6 6 0;
#X connect 11 7 7 0;
#X connect 11 8 8 0;
#X connect 11 9 9 0;
#X restore 1859 81 pd _BlockMaster0;
#N canvas 0 50 450 300 _BlockMaster1 0;
#X obj 555 323 inlet;
#X obj 555 373 sel 1 2 3 4 5 6 7 8 9 10, f 69;
#X obj 601 801 outlet;
#X text 1101 482 BLOCK MASTER SUBPATCH;
#X msg 555 421 open src/assets/track_01.wav \, start, f 38;
#X msg 601 457 open src/assets/track_02.wav \, start;
#X msg 647 496 open src/assets/track_03.wav \, start;
#X msg 694 536 open src/assets/track_04.wav \, start;
#X msg 740 567 open src/assets/track_05.wav \, start;
#X msg 787 607 open src/assets/track_06.wav \, start;
#X msg 833 645 open src/assets/track_07.wav \, start;
#X msg 879 676 open src/assets/track_08.wav \, start;
#X msg 926 716 open src/assets/track_09.wav \, start;
#X msg 972 751 open src/assets/track_010.wav \, start;
#X connect 0 0 1 0;
#X connect 1 0 4 0;
#X connect 1 1 5 0;
#X connect 1 2 6 0;
#X connect 1 3 7 0;
#X connect 1 4 8 0;
#X connect 1 5 9 0;
#X connect 1 6 10 0;
#X connect 1 7 11 0;
#X connect 1 8 12 0;
#X connect 1 9 13 0;
#X connect 5 0 2 0 32.................iB........vn.........TT....;
#X connect 6 0 2 0 32.................YA...L8+++eV....S++++6Q....;
#X connect 7 0 2 0 32.................RA...P5+++uT....j9+++aO....;
#X connect 8 0 2 0 32.................QA...X2+++eT....18+++eM....;
#X connect 9 0 2 0 32.................EA...bz+++eQ....G8++++J....;
#X connect 10 0 2 0 32.................y....jw++++L....Y7+++mH....;
#X connect 11 0 2 0 32.................n....rt+++OJ....q6+++qF....;
#X connect 12 0 2 0 32.................g....vq+++eH....75+++KD....;
#X connect 13 0 2 0 32.................P....3n+++OD....N5++++A....;
#X restore 1899 156 pd _BlockMaster1;
#X obj 1859 441 dac~ 1 2;
#X obj 2231 238 print crossfade;
#X obj 2090 71 print player 1;
#X obj 2043 136 print player 2;
#X obj 1859 413 *~ 0.5;
#X obj 2155 284 expr~ sqrt(1-$v1) * 0.707;
#X obj 2133 318 expr~ sqrt($v1) * 0.707;
#X connect 0 0 22 0;
#X connect 1 0 22 0;
#X connect 2 0 1 0 32..................A.........P.........7G....;
#X connect 2 1 1 0 32..................A...j9+++OP....o+++++G....;
#X connect 3 0 0 0 32.................RA........fT.........LJ....;
#X connect 3 1 0 0 32.................RA...j9+++uT....o++++OJ....;
#X connect 6 0 8 0;
#X connect 8 0 5 0;
#X connect 9 0 6 0;
#X connect 11 0 12 0;
#X connect 12 0 23 0 32.................G....XA...vA....V....z.....;
#X connect 12 0 24 0 32.................X..........F.........7B....;
#X connect 13 0 11 0;
#X connect 13 0 19 0;
#X connect 14 0 16 0;
#X connect 14 0 20 0;
#X connect 15 0 17 0;
#X connect 15 0 21 0;
#X connect 16 0 2 0;
#X connect 17 0 3 0;
#X connect 22 0 18 0;
#X connect 23 0 1 1 32.................f....f0+++OH....X8+++qD....;
#X connect 24 0 0 1 32.................W....X4++++E....V9+++iB....;
